#!OML:ASF X:\für Bonn\!DataBase\2005_08_11_Bastian_Final\c3d\Bastian.ASF
:FULLY-SPECIFIED
:DEGREES
108
root 0.604041 13.9521 1.3869 174.413 -5.11148 -173.559
lowerback 27.0699 -1.54681 2.09384
upperback 3.51575 -2.11878 1.32648
thorax -11.1156 -1.40218 1.12048
lowerneck -15.6927 -6.86841 -3.38617
upperneck -5.63824 -7.51244 11.5774
head 1.42778 -2.89258 3.62425
rclavicle 4.84041e-014 -1.78906e-014
rhumerus 71.8411 1.09239 21.3539
rradius 41.9215
rwrist -74.2324
rhand -48.8995 -5.06254
rfingers 7.12502
rthumb -21.5325 -33.8856
lclavicle 4.84041e-014 -1.78906e-014
lhumerus 67.7423 -10.9955 -36.0624
lradius 32.0181
lwrist 30.474
lhand -45.8977 18.6938
lfingers 7.12502
lthumb -18.6473 47.82
rfemur -39.0605 -5.94863 25.7865
rtibia 88.7937
rfoot -37.1808 -10.8559
rtoes -6.68584
lfemur -38.759 3.78752 -14.5252
ltibia 91.1619
lfoot -33.654 -13.2774
ltoes -2.11516
109
root 0.594769 14.1823 1.3688 174.622 -5.24033 -173.502
lowerback 26.5415 -1.61462 2.05844
upperback 3.42513 -2.19271 1.34656
thorax -10.9422 -1.42082 1.16839
lowerneck -15.4615 -6.81375 -3.39385
upperneck -5.531 -7.50795 11.2239
head 1.54718 -2.92702 3.86837
rclavicle -1.8487e-014 3.97569e-015
rhumerus 72.0841 1.47148 21.4718
rradius 41.9243
rwrist -74.2618
rhand -49.0817 -5.12822
rfingers 7.12502
rthumb -21.7074 -33.9312
lclavicle -1.8487e-014 3.97569e-015
lhumerus 68.1742 -11.3863 -36.3702
lradius 32.0908
lwrist 31.0958
lhand -46.0131 18.7285
lfingers 7.12502
lthumb -18.7583 47.844
rfemur -37.778 -5.82912 25.7679
rtibia 86.2077
rfoot -36.5281 -10.6743
rtoes -7.01168
lfemur -37.4312 3.57287 -14.5069
ltibia 88.3622
lfoot -33.0443 -13.138
ltoes -1.80345
110
root 0.585839 14.4087 1.34851 174.8 -5.36138 -173.467
lowerback 25.9933 -1.66895 1.99483
upperback 3.35856 -2.26221 1.36931
thorax -10.7284 -1.43844 1.23141
lowerneck -15.4113 -6.76031 -3.3453
upperneck -5.24201 -7.50693 11.102
head 1.62647 -2.9418 3.81508
rclavicle -8.74653e-015 3.06128e-014
rhumerus 72.3401 1.8984 21.5022
rradius 41.9257
rwrist -74.2556
rhand -49.1624 -5.16787
rfingers 7.12502
rthumb -21.7849 -33.9618
lclavicle -8.74653e-015 3.06128e-014
lhumerus 68.609 -11.7977 -36.5476
lradius 32.1296
lwrist 31.5577
lhand -46.0835 18.7459
lfingers 7.12502
lthumb -18.826 47.8549
rfemur -36.4641 -5.72372 25.7388
rtibia 83.6308
rfoot -35.8317 -10.5715
rtoes -7.46684
lfemur -36.0491 3.39534 -14.5046
ltibia 85.5484
lfoot -32.4291 -13.0443
ltoes -1.63542
111
root 0.576259 14.6271 1.32803 174.955 -5.48662 -173.409
lowerback 25.4584 -1.74136 1.98199
upperback 3.27364 -2.34005 1.3712
thorax -10.5435 -1.46158 1.24488
lowerneck -15.2675 -6.68505 -3.2095
upperneck -4.98825 -7.48758 10.9516
head 1.66966 -2.95345 3.73829
rclavicle 7.95139e-015 -2.38542e-015
rhumerus 72.639 2.43567 21.3708
rradius 41.9169
rwrist -74.3074
rhand -49.2074 -5.07621
rfingers 7.12502
rthumb -21.8282 -33.8651
lclavicle 7.95139e-015 -2.38542e-015
lhumerus 69.0955 -12.2564 -36.725
lradius 32.1775
lwrist 31.9323
lhand -46.103 18.7642
lfingers 7.12502
lthumb -18.8447 47.8713
rfemur -35.1504 -5.65472 25.7381
rtibia 81.0755
rfoot -35.0887 -10.4785
rtoes -7.90597
lfemur -34.6493 3.19043 -14.4793
ltibia 82.7305
lfoot -31.8075 -12.9414
ltoes -1.44456
112
root 0.566833 14.8389 1.30689 175.085 -5.61397 -173.393
lowerback 24.9168 -1.79986 1.91397
upperback 3.21433 -2.4192 1.38496
thorax -10.3222 -1.48533 1.30164
lowerneck -15.1642 -6.61974 -3.18814
upperneck -4.71958 -7.46326 10.8631
head 1.73445 -2.95694 3.70519
rclavicle 1.14301e-014 -9.54166e-015
rhumerus 72.9949 2.99388 21.0616
rradius 41.8562
rwrist -74.2663
rhand -49.1423 -4.94433
rfingers 7.12502
rthumb -21.7657 -33.7405
lclavicle 1.14301e-014 -9.54166e-015
lhumerus 69.5622 -12.7277 -36.7828
lradius 32.2046
lwrist 32.2209
lhand -46.0824 18.7505
lfingers 7.12502
lthumb -18.825 47.8596
rfemur -33.8152 -5.59505 25.7021
rtibia 78.5308
rfoot -34.2903 -10.4973
rtoes -8.52813
lfemur -33.2216 3.00766 -14.4986
ltibia 79.9003
lfoot -31.1561 -12.8375
ltoes -1.30209
113
root 0.558231 15.0476 1.2831 175.199 -5.81408 -173.396
lowerback 24.368 -1.88699 1.82744
upperback 3.14926 -2.53975 1.39129
thorax -10.1016 -1.5277 1.37276
lowerneck -15.0414 -6.54603 -3.12962
upperneck -4.41944 -7.43909 10.759
head 1.80358 -2.96263 3.65978
rclavicle -1.09332e-014 2.8625e-014
rhumerus 73.3877 3.62785 20.5326
rradius 41.777
rwrist -74.1553
rhand -49.0012 -4.81875
rfingers 7.12502
rthumb -21.6302 -33.6306
lclavicle -1.09332e-014 2.8625e-014
lhumerus 70.0495 -13.247 -36.7951
lradius 32.2004
lwrist 32.3292
lhand -46.0318 18.7368
lfingers 7.12502
lthumb -18.7762 47.8506
rfemur -32.4526 -5.60111 25.64
rtibia 75.9835
rfoot -33.462 -10.4938
rtoes -9.1473
lfemur -31.7788 2.78265 -14.5428
ltibia 77.0439
lfoot -30.4607 -12.6893
ltoes -1.57019
114
root 0.551259 15.2536 1.25539 175.313 -6.06518 -173.378
lowerback 23.7913 -1.98254 1.73585
upperback 3.08625 -2.67077 1.42474
thorax -9.86066 -1.57523 1.47696
lowerneck -14.8851 -6.46718 -3.10324
upperneck -4.16556 -7.39603 10.6569
head 1.85153 -2.95959 3.62348
rclavicle -2.59414e-014 9.14409e-015
rhumerus 73.7974 4.30682 19.8936
rradius 41.6399
rwrist -73.9742
rhand -48.7567 -4.59781
rfingers 7.12502
rthumb -21.3953 -33.4365
lclavicle -2.59414e-014 9.14409e-015
lhumerus 70.532 -13.7932 -36.638
lradius 32.1685
lwrist 32.2298
lhand -45.955 18.7523
lfingers 7.12502
lthumb -18.7024 47.8733
rfemur -31.0757 -5.65028 25.6108
rtibia 73.428
rfoot -32.6135 -10.5432
rtoes -9.78602
lfemur -30.3338 2.53072 -14.5601
ltibia 74.1666
lfoot -29.7003 -12.5572
ltoes -1.78771
